<svg xmlns="http://www.w3.org/2000/svg" width="1538" height="1630" viewBox="0 0 1538 1630" font-family="'Courier New',monospace">
<defs>
  <filter id="glow" x="-40%" y="-40%" width="180%" height="180%"><feGaussianBlur stdDeviation="2.2" result="b"/><feMerge><feMergeNode in="b"/><feMergeNode in="SourceGraphic"/></feMerge></filter>
  <pattern id="grid" width="40" height="40" patternUnits="userSpaceOnUse"><path d="M40 0H0V40" fill="none" stroke="#13131f" stroke-width="1"/></pattern>
</defs>
<rect width="1538" height="1630" fill="#0a0a12"/><rect width="1538" height="1630" fill="url(#grid)"/>
<text x="769" y="52" text-anchor="middle" fill="#e6f7ff" font-size="34" letter-spacing="14" filter="url(#glow)">THE HOLLOW GRID</text>
<text x="769" y="78" text-anchor="middle" fill="#5a6b7b" font-size="13" letter-spacing="3">the network outlived us. now it just hums, empty, and waits.</text>
<polyline points="769,1114 769,982" fill="none" stroke="#3a4a5a" stroke-width="2"/>
<polyline points="769,1114 969,1114" fill="none" stroke="#3a4a5a" stroke-width="2"/>
<polyline points="769,1114 769,1246" fill="none" stroke="#9aa7b5" stroke-width="1.6" stroke-dasharray="5 4" opacity="0.6"/>
<polyline points="769,1114 569,1114" fill="none" stroke="#3a4a5a" stroke-width="2"/>
<polyline points="769,982 769,850" fill="none" stroke="#3a4a5a" stroke-width="2"/>
<polyline points="969,1114 969,982" fill="none" stroke="#9aa7b5" stroke-width="1.6" stroke-dasharray="5 4" opacity="0.6"/>
<polyline points="969,982 969,850" fill="none" stroke="#3a4a5a" stroke-width="2"/>
<polyline points="769,1246 769,1378" fill="none" stroke="#9aa7b5" stroke-width="1.6" stroke-dasharray="5 4" opacity="0.6"/>
<polyline points="769,1378 769,1510" fill="none" stroke="#9aa7b5" stroke-width="1.6" stroke-dasharray="5 4" opacity="0.6"/>
<polyline points="769,1510 769,1246 569,1246" fill="none" stroke="#3a4a5a" stroke-width="2"/>
<polyline points="569,1246 569,1378" fill="none" stroke="#3a4a5a" stroke-width="2"/>
<polyline points="569,1246 569,982 369,982" fill="none" stroke="#3a4a5a" stroke-width="2"/>
<polyline points="369,982 369,1114" fill="none" stroke="#9aa7b5" stroke-width="1.6" stroke-dasharray="5 4" opacity="0.6"/>
<polyline points="369,1114 169,1114" fill="none" stroke="#3a4a5a" stroke-width="2"/>
<polyline points="969,850 1169,850" fill="none" stroke="#3a4a5a" stroke-width="2"/>
<polyline points="969,850 969,718" fill="none" stroke="#3a4a5a" stroke-width="2"/>
<polyline points="1169,850 1369,850" fill="none" stroke="#3a4a5a" stroke-width="2"/>
<polyline points="1169,850 1169,982" fill="none" stroke="#3a4a5a" stroke-width="2"/>
<polyline points="969,718 969,586" fill="none" stroke="#3a4a5a" stroke-width="2"/>
<polyline points="969,586 969,454" fill="none" stroke="#3a4a5a" stroke-width="2"/>
<polyline points="969,454 769,454" fill="none" stroke="#3a4a5a" stroke-width="2"/>
<polyline points="969,454 969,322" fill="none" stroke="#3a4a5a" stroke-width="2"/>
<polyline points="969,322 969,190" fill="none" stroke="#9aa7b5" stroke-width="1.6" stroke-dasharray="5 4" opacity="0.6"/>
<g>
<rect x="690" y="1084" width="158" height="60" rx="7" fill="#10131c" stroke="#00e5ff" stroke-width="3" filter="url(#glow)"/>
<text x="769" y="1119" text-anchor="middle" fill="#dfe9f3" font-size="13">The Cracked Nexus</text>
</g>
<g>
<rect x="490" y="1084" width="158" height="60" rx="7" fill="#10131c" stroke="#00e5ff" stroke-width="1.7" />
<text x="569" y="1119" text-anchor="middle" fill="#dfe9f3" font-size="13">The Rusted Tankard</text>
</g>
<g>
<rect x="690" y="952" width="158" height="60" rx="7" fill="#10131c" stroke="#00e5ff" stroke-width="1.7" />
<text x="769" y="987" text-anchor="middle" fill="#dfe9f3" font-size="13">Scrap Market</text>
</g>
<g>
<rect x="690" y="820" width="158" height="60" rx="7" fill="#10131c" stroke="#00e5ff" stroke-width="1.7" />
<text x="769" y="855" text-anchor="middle" fill="#dfe9f3" font-size="13">The Holding Pit</text>
</g>
<g>
<rect x="890" y="1084" width="158" height="60" rx="7" fill="#10131c" stroke="#00e5ff" stroke-width="1.7" />
<text x="969" y="1119" text-anchor="middle" fill="#dfe9f3" font-size="13">Tinker's Workshop</text>
</g>
<g>
<rect x="890" y="952" width="158" height="60" rx="7" fill="#10131c" stroke="#ffb000" stroke-width="1.7" />
<text x="969" y="987" text-anchor="middle" fill="#dfe9f3" font-size="13">Rusted Rooftop</text>
</g>
<g>
<rect x="690" y="1216" width="158" height="60" rx="7" fill="#10131c" stroke="#39ff14" stroke-width="1.7" />
<text x="769" y="1251" text-anchor="middle" fill="#dfe9f3" font-size="13">Service Tunnels</text>
</g>
<g>
<rect x="690" y="1348" width="158" height="60" rx="7" fill="#10131c" stroke="#39ff14" stroke-width="1.7" />
<text x="769" y="1383" text-anchor="middle" fill="#dfe9f3" font-size="13">The Sump</text>
</g>
<g>
<rect x="690" y="1480" width="158" height="60" rx="7" fill="#10131c" stroke="#39ff14" stroke-width="1.7" />
<text x="769" y="1507" text-anchor="middle" fill="#dfe9f3" font-size="13">The Breached</text>
<text x="769" y="1523" text-anchor="middle" fill="#dfe9f3" font-size="13">Floodgate</text>
</g>
<g>
<rect x="490" y="1216" width="158" height="60" rx="7" fill="#10131c" stroke="#39ff14" stroke-width="1.7" />
<text x="569" y="1251" text-anchor="middle" fill="#dfe9f3" font-size="13">Cold Storage Row</text>
</g>
<g>
<rect x="490" y="1348" width="158" height="60" rx="7" fill="#10131c" stroke="#39ff14" stroke-width="1.7" />
<text x="569" y="1383" text-anchor="middle" fill="#dfe9f3" font-size="13">The Cooling Pools</text>
</g>
<g>
<rect x="290" y="952" width="158" height="60" rx="7" fill="#10131c" stroke="#39ff14" stroke-width="1.7" />
<text x="369" y="987" text-anchor="middle" fill="#dfe9f3" font-size="13">The Fiber Vault</text>
</g>
<g>
<rect x="290" y="1084" width="158" height="60" rx="7" fill="#10131c" stroke="#39ff14" stroke-width="1.7" />
<text x="369" y="1119" text-anchor="middle" fill="#dfe9f3" font-size="13">The Core Lab</text>
</g>
<g>
<rect x="90" y="1084" width="158" height="60" rx="7" fill="#10131c" stroke="#39ff14" stroke-width="1.7" />
<text x="169" y="1119" text-anchor="middle" fill="#dfe9f3" font-size="13">The Cold Archive</text>
</g>
<g>
<rect x="890" y="820" width="158" height="60" rx="7" fill="#10131c" stroke="#ffb000" stroke-width="1.7" />
<text x="969" y="855" text-anchor="middle" fill="#dfe9f3" font-size="13">The Ash Flats</text>
</g>
<g>
<rect x="1090" y="820" width="158" height="60" rx="7" fill="#10131c" stroke="#ffb000" stroke-width="1.7" />
<text x="1169" y="855" text-anchor="middle" fill="#dfe9f3" font-size="13">The Scorch Road</text>
</g>
<g>
<rect x="1090" y="952" width="158" height="60" rx="7" fill="#10131c" stroke="#ffb000" stroke-width="1.7" />
<text x="1169" y="979" text-anchor="middle" fill="#dfe9f3" font-size="13">The Old Transit</text>
<text x="1169" y="995" text-anchor="middle" fill="#dfe9f3" font-size="13">Hub</text>
</g>
<g>
<rect x="890" y="688" width="158" height="60" rx="7" fill="#10131c" stroke="#ff2d55" stroke-width="1.7" />
<text x="969" y="715" text-anchor="middle" fill="#dfe9f3" font-size="13">The Cinder Front</text>
<text x="969" y="731" text-anchor="middle" fill="#dfe9f3" font-size="13">Checkpoint</text>
</g>
<g>
<rect x="1290" y="820" width="158" height="60" rx="7" fill="#10131c" stroke="#ffb000" stroke-width="1.7" />
<text x="1369" y="847" text-anchor="middle" fill="#dfe9f3" font-size="13">The Refugee</text>
<text x="1369" y="863" text-anchor="middle" fill="#dfe9f3" font-size="13">Waystation</text>
</g>
<g>
<rect x="890" y="556" width="158" height="60" rx="7" fill="#10131c" stroke="#ff2d55" stroke-width="1.7" />
<text x="969" y="591" text-anchor="middle" fill="#dfe9f3" font-size="13">The Cinder Gate</text>
</g>
<g>
<rect x="890" y="424" width="158" height="60" rx="7" fill="#10131c" stroke="#ff2d55" stroke-width="1.7" />
<text x="969" y="459" text-anchor="middle" fill="#dfe9f3" font-size="13">The Muster Yard</text>
</g>
<g>
<rect x="690" y="424" width="158" height="60" rx="7" fill="#10131c" stroke="#ff2d55" stroke-width="1.7" />
<text x="769" y="459" text-anchor="middle" fill="#dfe9f3" font-size="13">The Cages</text>
</g>
<g>
<rect x="890" y="292" width="158" height="60" rx="7" fill="#10131c" stroke="#ff2d55" stroke-width="1.7" />
<text x="969" y="327" text-anchor="middle" fill="#dfe9f3" font-size="13">The War Room</text>
</g>
<g>
<rect x="890" y="160" width="158" height="60" rx="7" fill="#10131c" stroke="#ff2d55" stroke-width="1.7" />
<text x="969" y="187" text-anchor="middle" fill="#dfe9f3" font-size="13">The Ashmonger's</text>
<text x="969" y="203" text-anchor="middle" fill="#dfe9f3" font-size="13">Dais</text>
</g>
<rect x="90" y="1585" width="14" height="14" rx="3" fill="#10131c" stroke="#00e5ff" stroke-width="2"/>
<text x="112" y="1596" fill="#9aa7b5" font-size="13">The Nexus &amp; Town</text>
<rect x="261.2" y="1585" width="14" height="14" rx="3" fill="#10131c" stroke="#39ff14" stroke-width="2"/>
<text x="283.2" y="1596" fill="#9aa7b5" font-size="13">The Undercity (server farm)</text>
<rect x="522.5999999999999" y="1585" width="14" height="14" rx="3" fill="#10131c" stroke="#ffb000" stroke-width="2"/>
<text x="544.5999999999999" y="1596" fill="#9aa7b5" font-size="13">The Open Wastes</text>
<rect x="685.5999999999999" y="1585" width="14" height="14" rx="3" fill="#10131c" stroke="#ff2d55" stroke-width="2"/>
<text x="707.5999999999999" y="1596" fill="#9aa7b5" font-size="13">The Cinder Front</text>
<text x="1448" y="1596" text-anchor="end" fill="#5a6b7b" font-size="12">- - -  ladder / shaft (up·down)</text>
</svg>